<svg width="41" height="25" viewBox="0 0 41 25" fill="none" xmlns="http://www.w3.org/2000/svg">
<path d="M16.8906 21.2582C10.4673 23.2561 0.0927203 21.2143 0.000572001 12.3165C-0.0915763 3.41861 10.9806 8.71898 10.9806 8.71898L16.8906 21.2582Z" fill="#FFC250"/>
<path d="M3.12366 7.3241C7.60662 6.55567 11.0113 12.498 14.7783 18.6968C18.5452 24.8955 28.3542 27.3525 34.6218 22.1397C40.8893 16.9269 43.542 7.79713 35.8464 2.35139C28.1509 -3.09434 23.3471 9.26919 16.7221 9.60904C10.0972 9.94888 10.0489 5.02276 3.12366 7.3241Z" fill="#FFD064"/>
<ellipse cx="35.1972" cy="12.5936" rx="1.96745" ry="1.96814" fill="#FFE19D"/>
<circle cx="31.4262" cy="14.0691" r="1.47559" fill="#FFE19D"/>
<circle cx="34.0495" cy="16.0373" r="1.14768" fill="#FFE19D"/>
</svg>
